<mxfile host="Electron" agent="Mozilla/5.0 (Windows NT 10.0; Win64; x64) AppleWebKit/537.36 (KHTML, like Gecko) draw.io/26.0.9 Chrome/128.0.6613.186 Electron/32.2.5 Safari/537.36" version="26.0.9">
  <diagram name="第 1 页" id="GIAjR0rXeWZUQFvc5wLO">
    <mxGraphModel dx="1434" dy="836" grid="1" gridSize="10" guides="1" tooltips="1" connect="1" arrows="1" fold="1" page="1" pageScale="1" pageWidth="827" pageHeight="1169" math="0" shadow="0">
      <root>
        <mxCell id="0" />
        <mxCell id="1" parent="0" />
        <mxCell id="QvcNX-ANfkutcF1VQsqg-31" value="" style="rounded=1;whiteSpace=wrap;html=1;fillColor=#fff2cc;gradientColor=#ffd966;strokeColor=#000000;" parent="1" vertex="1">
          <mxGeometry x="130" y="450" width="510" height="150" as="geometry" />
        </mxCell>
        <mxCell id="QvcNX-ANfkutcF1VQsqg-10" value="" style="rounded=1;whiteSpace=wrap;html=1;fillColor=none;gradientColor=#b3b3b3;strokeColor=#000000;glass=0;shadow=0;" parent="1" vertex="1">
          <mxGeometry x="560" y="140" width="190" height="100" as="geometry" />
        </mxCell>
        <mxCell id="zaIRJdftHB46xq49ESVS-1" value="" style="rounded=1;whiteSpace=wrap;html=1;fillColor=none;dashed=1;strokeColor=#FF0000;strokeWidth=2;" parent="1" vertex="1">
          <mxGeometry x="140" y="470" width="150" height="90" as="geometry" />
        </mxCell>
        <mxCell id="QvcNX-ANfkutcF1VQsqg-1" value="&lt;font style=&quot;font-size: 27px;&quot;&gt;Beeline&lt;/font&gt;" style="rounded=1;whiteSpace=wrap;html=1;fillColor=#dae8fc;strokeColor=#000000;gradientColor=#7ea6e0;" parent="1" vertex="1">
          <mxGeometry x="155" y="484" width="120" height="60" as="geometry" />
        </mxCell>
        <mxCell id="QvcNX-ANfkutcF1VQsqg-2" value="&lt;span style=&quot;font-size: 27px;&quot;&gt;JDBC&lt;/span&gt;" style="rounded=1;whiteSpace=wrap;html=1;fillColor=#dae8fc;strokeColor=#000000;gradientColor=#7ea6e0;" parent="1" vertex="1">
          <mxGeometry x="340" y="484" width="120" height="60" as="geometry" />
        </mxCell>
        <mxCell id="QvcNX-ANfkutcF1VQsqg-3" value="&lt;span style=&quot;font-size: 27px;&quot;&gt;ODBC&lt;/span&gt;" style="rounded=1;whiteSpace=wrap;html=1;fillColor=#dae8fc;strokeColor=#000000;gradientColor=#7ea6e0;" parent="1" vertex="1">
          <mxGeometry x="490" y="484" width="120" height="60" as="geometry" />
        </mxCell>
        <mxCell id="QvcNX-ANfkutcF1VQsqg-6" value="&lt;font style=&quot;font-size: 28px;&quot;&gt;HiveServer2&lt;/font&gt;" style="shape=document;whiteSpace=wrap;html=1;boundedLbl=1;fillColor=#e6d0de;strokeColor=#000000;gradientColor=#d5739d;size=0.125;" parent="1" vertex="1">
          <mxGeometry x="290" y="290" width="230" height="80" as="geometry" />
        </mxCell>
        <mxCell id="QvcNX-ANfkutcF1VQsqg-7" value="" style="endArrow=none;html=1;rounded=0;exitX=0.5;exitY=0;exitDx=0;exitDy=0;endFill=0;" parent="1" edge="1">
          <mxGeometry width="50" height="50" relative="1" as="geometry">
            <mxPoint x="215" y="467" as="sourcePoint" />
            <mxPoint x="215" y="420" as="targetPoint" />
          </mxGeometry>
        </mxCell>
        <mxCell id="QvcNX-ANfkutcF1VQsqg-8" value="&lt;font style=&quot;font-size: 24px;&quot;&gt;metadata&lt;/font&gt;" style="rounded=1;whiteSpace=wrap;html=1;fillColor=#f8cecc;strokeColor=#000000;gradientColor=#ea6b66;dashed=1;" parent="1" vertex="1">
          <mxGeometry x="590" y="171" width="120" height="60" as="geometry" />
        </mxCell>
        <mxCell id="QvcNX-ANfkutcF1VQsqg-9" value="&lt;font style=&quot;font-size: 28px;&quot;&gt;MetaStore&lt;/font&gt;" style="rounded=1;whiteSpace=wrap;html=1;fillColor=#d5e8d4;strokeColor=#000000;gradientColor=#97d077;" parent="1" vertex="1">
          <mxGeometry x="340" y="157" width="150" height="60" as="geometry" />
        </mxCell>
        <mxCell id="QvcNX-ANfkutcF1VQsqg-11" value="" style="endArrow=classic;html=1;rounded=0;entryX=0.4;entryY=0.967;entryDx=0;entryDy=0;entryPerimeter=0;" parent="1" edge="1" target="QvcNX-ANfkutcF1VQsqg-9">
          <mxGeometry width="50" height="50" relative="1" as="geometry">
            <mxPoint x="400" y="290" as="sourcePoint" />
            <mxPoint x="399" y="220" as="targetPoint" />
          </mxGeometry>
        </mxCell>
        <mxCell id="QvcNX-ANfkutcF1VQsqg-12" value="" style="endArrow=classic;html=1;rounded=0;" parent="1" edge="1">
          <mxGeometry width="50" height="50" relative="1" as="geometry">
            <mxPoint x="490" y="190" as="sourcePoint" />
            <mxPoint x="550" y="190" as="targetPoint" />
          </mxGeometry>
        </mxCell>
        <mxCell id="QvcNX-ANfkutcF1VQsqg-13" value="MYSQL" style="text;html=1;align=center;verticalAlign=middle;whiteSpace=wrap;rounded=0;fontSize=20;" parent="1" vertex="1">
          <mxGeometry x="625" y="140" width="60" height="30" as="geometry" />
        </mxCell>
        <mxCell id="QvcNX-ANfkutcF1VQsqg-14" value="port:9083" style="text;html=1;align=center;verticalAlign=middle;whiteSpace=wrap;rounded=0;fontSize=20;" parent="1" vertex="1">
          <mxGeometry x="425" y="236" width="60" height="30" as="geometry" />
        </mxCell>
        <mxCell id="QvcNX-ANfkutcF1VQsqg-15" value="port:10000(default: tcp)&lt;div&gt;&lt;br&gt;&lt;/div&gt;" style="text;html=1;align=center;verticalAlign=middle;whiteSpace=wrap;rounded=0;fontSize=20;" parent="1" vertex="1">
          <mxGeometry x="399" y="390" width="220" height="30" as="geometry" />
        </mxCell>
        <mxCell id="QvcNX-ANfkutcF1VQsqg-16" value="port:10001(&lt;font color=&quot;#ff0000&quot;&gt;http.mode&lt;/font&gt;)&lt;div&gt;&lt;br&gt;&lt;/div&gt;" style="text;html=1;align=center;verticalAlign=middle;whiteSpace=wrap;rounded=0;fontSize=20;" parent="1" vertex="1">
          <mxGeometry x="474" y="420" width="60" height="30" as="geometry" />
        </mxCell>
        <mxCell id="QvcNX-ANfkutcF1VQsqg-23" value="" style="curved=1;endArrow=classic;html=1;rounded=0;exitX=1;exitY=0.625;exitDx=0;exitDy=0;exitPerimeter=0;entryX=0.526;entryY=1;entryDx=0;entryDy=0;entryPerimeter=0;" parent="1" source="QvcNX-ANfkutcF1VQsqg-6" edge="1" target="QvcNX-ANfkutcF1VQsqg-10">
          <mxGeometry width="50" height="50" relative="1" as="geometry">
            <mxPoint x="560" y="325" as="sourcePoint" />
            <mxPoint x="660" y="250" as="targetPoint" />
            <Array as="points">
              <mxPoint x="570" y="340" />
              <mxPoint x="660" y="300" />
            </Array>
          </mxGeometry>
        </mxCell>
        <mxCell id="QvcNX-ANfkutcF1VQsqg-24" value="&lt;font style=&quot;font-size: 20px;&quot;&gt;embeded&lt;/font&gt;" style="text;html=1;align=center;verticalAlign=middle;whiteSpace=wrap;rounded=0;fontSize=18;" parent="1" vertex="1">
          <mxGeometry x="600" y="315" width="110" height="30" as="geometry" />
        </mxCell>
        <mxCell id="QvcNX-ANfkutcF1VQsqg-25" value="" style="rounded=1;whiteSpace=wrap;html=1;fillColor=none;dashed=1;strokeColor=#FF0000;strokeWidth=2;" parent="1" vertex="1">
          <mxGeometry x="330" y="470" width="290" height="90" as="geometry" />
        </mxCell>
        <mxCell id="QvcNX-ANfkutcF1VQsqg-26" value="" style="endArrow=classic;html=1;rounded=0;exitX=0.207;exitY=-0.011;exitDx=0;exitDy=0;exitPerimeter=0;" parent="1" edge="1">
          <mxGeometry width="50" height="50" relative="1" as="geometry">
            <mxPoint x="385.03" y="469.01" as="sourcePoint" />
            <mxPoint x="385" y="368" as="targetPoint" />
          </mxGeometry>
        </mxCell>
        <mxCell id="QvcNX-ANfkutcF1VQsqg-28" value="" style="curved=1;endArrow=classic;html=1;rounded=0;entryX=0;entryY=0.5;entryDx=0;entryDy=0;" parent="1" target="QvcNX-ANfkutcF1VQsqg-9" edge="1">
          <mxGeometry width="50" height="50" relative="1" as="geometry">
            <mxPoint x="194" y="467" as="sourcePoint" />
            <mxPoint x="330" y="190" as="targetPoint" />
            <Array as="points">
              <mxPoint x="194" y="390" />
              <mxPoint x="194" y="310" />
              <mxPoint x="220" y="187" />
            </Array>
          </mxGeometry>
        </mxCell>
        <mxCell id="QvcNX-ANfkutcF1VQsqg-29" value="&lt;font style=&quot;font-size: 20px;&quot;&gt;embeded&lt;/font&gt;" style="text;html=1;align=center;verticalAlign=middle;whiteSpace=wrap;rounded=0;" parent="1" vertex="1">
          <mxGeometry x="120" y="330" width="60" height="30" as="geometry" />
        </mxCell>
        <mxCell id="QvcNX-ANfkutcF1VQsqg-30" value="&lt;font style=&quot;font-size: 24px;&quot;&gt;clients&lt;/font&gt;" style="text;html=1;align=center;verticalAlign=middle;whiteSpace=wrap;rounded=0;" parent="1" vertex="1">
          <mxGeometry x="328" y="563" width="60" height="30" as="geometry" />
        </mxCell>
        <mxCell id="QvcNX-ANfkutcF1VQsqg-32" value="&lt;font style=&quot;font-size: 20px;&quot;&gt;remote&lt;/font&gt;" style="text;html=1;align=center;verticalAlign=middle;whiteSpace=wrap;rounded=0;" parent="1" vertex="1">
          <mxGeometry x="270" y="390" width="60" height="30" as="geometry" />
        </mxCell>
        <mxCell id="QvcNX-ANfkutcF1VQsqg-33" value="" style="endArrow=none;html=1;rounded=0;jumpSize=6;endSize=6;" parent="1" edge="1">
          <mxGeometry width="50" height="50" relative="1" as="geometry">
            <mxPoint x="215" y="420" as="sourcePoint" />
            <mxPoint x="385" y="420" as="targetPoint" />
          </mxGeometry>
        </mxCell>
        <mxCell id="QvcNX-ANfkutcF1VQsqg-38" style="edgeStyle=orthogonalEdgeStyle;rounded=0;orthogonalLoop=1;jettySize=auto;html=1;exitX=0;exitY=0;exitDx=0;exitDy=0;" parent="1" edge="1">
          <mxGeometry relative="1" as="geometry">
            <mxPoint x="136" y="361" as="sourcePoint" />
            <mxPoint x="136" y="361" as="targetPoint" />
          </mxGeometry>
        </mxCell>
      </root>
    </mxGraphModel>
  </diagram>
</mxfile>
